<svg xmlns="http://www.w3.org/2000/svg" version="1.1" xmlns:xlink="http://www.w3.org/1999/xlink" xmlns:svgjs="http://svgjs.dev/svgjs" width="2000" height="1607" viewBox="0 0 2000 1607"><g transform="matrix(1,0,0,1,0,0)"><svg viewBox="0 0 448 360" data-background-color="#020202" preserveAspectRatio="xMidYMid meet" height="1607" width="2000" xmlns="http://www.w3.org/2000/svg" xmlns:xlink="http://www.w3.org/1999/xlink"><g id="tight-bounds" transform="matrix(1,0,0,1,0,0)"><svg viewBox="0 0 448 360" height="360" width="448"><g><svg></svg></g><g><svg viewBox="0 0 448 360" height="360" width="448"><g><path d="M193.855 44.683c1.378 0 2.494 1.116 2.495 2.494 0 1.378-1.116 2.494-2.495 2.495h-23.846l-17.167 17.167c-0.973 0.973-2.551 0.973-3.53 0-0.973-0.973-0.973-2.551 0-3.529l13.644-13.645h-40.378c-11.518 0-19.151 2.688-23.815 8.113-4.739 5.519-6.66 14.056-6.66 25.63 0 0.069 0 0.137-0.006 0.206l0.212 36.692 14.692-14.692c0.973-0.973 2.551-0.973 3.53 0 0.973 0.973 0.973 2.551 0 3.53l-18.178 18.178c0.206 35.832 0.193 71.358-0.013 107.19 25.486 25.2 50.617 50.312 75.811 75.791h25.38c1.378 0 2.494 1.116 2.495 2.495 0 1.378-1.116 2.494-2.495 2.494h-20.448l25.942 26.241 0.006-0.006c8.188 8.188 15.577 12.859 22.824 13.413 7.146 0.543 14.442-2.956 22.586-11.093l28.555-28.555h-20.722c-1.378 0-2.494-1.116-2.495-2.494 0-1.378 1.116-2.494 2.495-2.495h25.711l16.625-16.625c0.973-0.973 2.551-0.973 3.529 0 0.973 0.973 0.973 2.551 0 3.53l-13.101 13.102h40.377c11.518 0 19.151-2.688 23.815-8.113 4.739-5.519 6.66-14.056 6.66-25.63h0.013l-0.212-36.898-16.014 16.014c-0.973 0.973-2.551 0.973-3.53 0-0.973-0.973-0.973-2.551 0-3.53l19.5-19.5c-0.206-35.832-0.193-71.358 0.013-107.19-25.486-25.2-50.617-50.312-75.811-75.791h-26.147c-1.378 0-2.494-1.116-2.495-2.495 0-1.378 1.116-2.494 2.495-2.494h21.215l-25.824-26.123c-0.044-0.037-0.081-0.075-0.124-0.112-8.188-8.188-15.577-12.859-22.824-13.413-7.146-0.543-14.442 2.956-22.586 11.093l-28.555 28.555h18.858zM122.578 44.683h45.367l32.078-32.078c9.248-9.248 17.81-13.195 26.484-12.534 8.568 0.649 16.956 5.824 25.985 14.854 0.05 0.05 0.094 0.094 0.137 0.143l29.278 29.615h43.508c13.071 0 21.919 3.268 27.594 9.871 5.6 6.517 7.864 16.101 7.864 28.867 0 0.081-0.006 0.156-0.012 0.23l-0.225 39.742 28.43 28.112 0.006-0.006c9.03 9.03 14.206 17.411 14.854 25.985 0.661 8.674-3.293 17.236-12.534 26.484l-30.768 30.768 0.237 41.843h0.012c0 12.765-2.27 22.35-7.864 28.867-5.675 6.604-14.524 9.872-27.594 9.871h-45.366l-32.078 32.078c-9.248 9.248-17.81 13.195-26.484 12.534-8.568-0.649-16.956-5.824-25.985-14.854l0.006-0.006-29.421-29.758h-43.509c-13.071 0-21.919-3.268-27.594-9.872-5.6-6.517-7.864-16.101-7.863-28.866h0.012l0.231-39.972-28.293-27.969c-0.05-0.044-0.1-0.087-0.143-0.137-9.03-9.03-14.206-17.411-14.854-25.985-0.661-8.674 3.293-17.236 12.534-26.484l30.768-30.768-0.237-41.607c-0.006-0.075-0.012-0.156-0.012-0.23 0-12.765 2.27-22.35 7.864-28.867 5.675-6.604 14.524-9.872 27.594-9.871zM87.682 179.997l-0.274-47.724-27.276 27.276c-8.138 8.138-11.636 15.44-11.094 22.587 0.549 7.246 5.226 14.642 13.413 22.823 0.037 0.037 0.081 0.081 0.113 0.125l24.837 24.551 0.281-49.644zM92.303 241.483l-0.2 35.09h0.013c0 11.58 1.921 20.117 6.66 25.63 4.664 5.432 12.297 8.113 23.815 8.113h38.576l-33.55-33.936-35.308-34.903zM325.415 49.672h-38.575l33.549 33.936 35.308 34.902 0.2-34.884c-0.006-0.069-0.006-0.137-0.007-0.205 0-11.58-1.921-20.117-6.66-25.63-4.664-5.432-12.297-8.113-23.815-8.113zM360.599 130.352l-0.281 49.645 0.274 47.724 27.276-27.276c8.138-8.138 11.636-15.44 11.094-22.587-0.549-7.252-5.226-14.642-13.413-22.824l0.006-0.006-24.956-24.669z" fill="#ffffff" fill-rule="nonzero" stroke="none" stroke-width="1" stroke-linecap="butt" stroke-linejoin="miter" stroke-miterlimit="10" stroke-dasharray="" stroke-dashoffset="0" font-family="none" font-weight="none" font-size="none" text-anchor="none" style="mix-blend-mode: normal" data-fill-palette-color="tertiary"></path></g><g transform="matrix(1,0,0,1,112,103.68077527187208)"><svg viewBox="0 0 224 152.63844945625584" height="152.63844945625584" width="224"><g><svg viewBox="0 0 224 152.63844945625584" height="152.63844945625584" width="224"><g><svg viewBox="0 0 224 152.63844945625584" height="152.63844945625584" width="224"><g><svg viewBox="0 0 224 152.63844945625584" height="152.63844945625584" width="224"><g id="textblocktransform"><svg viewBox="0 0 224 152.63844945625584" height="152.63844945625584" width="224" id="textblock"><g><svg viewBox="0 0 224 111.90451832907077" height="111.90451832907077" width="224"><g transform="matrix(1,0,0,1,0,0)"><svg width="224" viewBox="-1.3 -26.95 59.65 30.3" height="111.90451832907077" data-palette-color="#f4b9b9"><path d="M9.55 0.35L9.55 0.35Q7.2 0.35 5.45-0.25 3.7-0.85 2.7-1.68 1.7-2.5 1.7-3.25L1.7-3.25Q1.7-3.6 1.85-3.93 2-4.25 2.27-4.5 2.55-4.75 2.85-4.75L2.85-4.75Q3.4-4.75 4.08-4.17 4.75-3.6 5.98-3 7.2-2.4 9.45-2.4L9.45-2.4Q12.3-2.4 13.45-3.48 14.6-4.55 14.6-5.95L14.6-5.95Q14.6-7.6 13.73-8.53 12.85-9.45 11.43-9.98 10-10.5 8.43-10.93 6.85-11.35 5.43-12.03 4-12.7 3.13-13.9 2.25-15.1 2.25-17.15L2.25-17.15Q2.25-18.75 3.05-20.33 3.85-21.9 5.58-22.93 7.3-23.95 10.15-23.95L10.15-23.95Q11.8-23.95 13.35-23.6 14.9-23.25 15.88-22.68 16.85-22.1 16.85-21.5L16.85-21.5Q16.85-21.25 16.68-20.85 16.5-20.45 16.2-20.13 15.9-19.8 15.5-19.8L15.5-19.8Q15.1-19.8 14.43-20.18 13.75-20.55 12.7-20.88 11.65-21.2 10.2-21.2L10.2-21.2Q8.4-21.2 7.3-20.55 6.2-19.9 5.7-19.03 5.2-18.15 5.2-17.3L5.2-17.3Q5.2-15.85 6.1-15.1 7-14.35 8.43-13.88 9.85-13.4 11.43-12.98 13-12.55 14.43-11.8 15.85-11.05 16.73-9.7 17.6-8.35 17.6-6.1L17.6-6.1Q17.6-3.15 15.5-1.4 13.4 0.35 9.55 0.35ZM24.05 0L24.05 0Q23.4 0 22.92-0.4 22.45-0.8 22.45-1.3L22.45-1.3 22.45-22.45Q22.45-23 22.92-23.33 23.4-23.65 24.05-23.65L24.05-23.65Q24.7-23.65 25.15-23.33 25.6-23 25.6-22.45L25.6-22.45 25.6-20.15Q26.45-21.6 28.12-22.78 29.8-23.95 32.25-23.95L32.25-23.95Q34.75-23.95 36.6-22.55 38.45-21.15 39.35-18.95L39.35-18.95Q40.65-21.5 42.72-22.73 44.8-23.95 46.95-23.95L46.95-23.95Q49.1-23.95 51.02-22.85 52.95-21.75 54.15-19.68 55.35-17.6 55.35-14.6L55.35-14.6 55.35-1.3Q55.35-0.8 54.87-0.4 54.4 0 53.7 0L53.7 0Q53.05 0 52.57-0.4 52.1-0.8 52.1-1.3L52.1-1.3 52.1-14.6Q52.1-16.7 51.25-18.1 50.4-19.5 49.1-20.23 47.8-20.95 46.4-20.95L46.4-20.95Q44.95-20.95 43.62-20.2 42.3-19.45 41.42-18.07 40.55-16.7 40.55-14.8L40.55-14.8 40.55-1.25Q40.55-0.6 40.02-0.3 39.5 0 38.9 0L38.9 0Q38.35 0 37.82-0.3 37.3-0.6 37.3-1.25L37.3-1.25 37.3-14.75Q37.3-16.55 36.52-17.95 35.75-19.35 34.45-20.15 33.15-20.95 31.6-20.95L31.6-20.95Q30.15-20.95 28.8-20.2 27.45-19.45 26.57-18.05 25.7-16.65 25.7-14.6L25.7-14.6 25.7-1.3Q25.7-0.8 25.22-0.4 24.75 0 24.05 0Z" opacity="1" transform="matrix(1,0,0,1,0,0)" fill="#ffffff" class="wordmark-text-0" data-fill-palette-color="primary" id="text-0"></path></svg></g></svg></g><g transform="matrix(1,0,0,1,2.5,125.44745979198638)"><svg viewBox="0 0 219 27.190989664269452" height="27.190989664269452" width="219"><g transform="matrix(1,0,0,1,0,0)"><svg width="219" viewBox="-1.4025 -50.19 433.3325 54.68" height="27.190989664269452" data-palette-color="#eb1307"><path d="M24.8-9.84L24.8-9.84Q24.8-8.15 23.91-6.7 23.02-5.25 21.58-4.03 20.14-2.81 18.32-1.88 16.5-0.95 14.62-0.32 12.74 0.32 10.99 0.61 9.23 0.9 7.91 0.81L7.91 0.81Q6.76 0.76 5.51 0.45 4.25 0.15 3.28-0.29 2.32-0.73 1.84-1.25 1.37-1.76 1.81-2.25L1.81-2.25Q2.25-2.71 2.76-3.17 3.27-3.64 3.98-4.14 4.69-4.64 5.66-5.2 6.64-5.76 8.01-6.45L8.01-6.45Q7.57-5.76 7.79-5.25 8.01-4.74 8.61-4.33 9.2-3.93 10.07-3.66 10.94-3.39 11.78-3.22 12.62-3.05 13.32-2.98 14.01-2.91 14.31-2.91L14.31-2.91Q15.19-2.91 16.05-2.99 16.92-3.08 17.6-3.37 18.29-3.66 18.71-4.24 19.14-4.81 19.14-5.81L19.14-5.81Q19.14-7.03 18.47-7.89 17.8-8.74 16.71-9.31 15.63-9.89 14.28-10.23 12.94-10.57 11.61-10.8 10.28-11.04 9.09-11.19 7.91-11.35 7.15-11.55L7.15-11.55Q5.93-11.87 5.11-12.39 4.3-12.92 3.8-13.56 3.3-14.21 3.08-14.94 2.86-15.67 2.86-16.41L2.86-16.41Q2.86-18.04 3.74-19.43 4.61-20.83 6.03-21.95 7.45-23.07 9.24-23.93 11.04-24.78 12.88-25.37 14.72-25.95 16.46-26.25 18.19-26.54 19.46-26.54L19.46-26.54Q20.92-26.54 22.06-26.38 23.19-26.22 23.9-26L23.9-26Q24.58-25.78 24.77-25.44 24.95-25.1 24.77-24.66 24.58-24.22 24.07-23.71 23.56-23.19 22.85-22.66L22.85-22.66Q22.29-22.22 21.66-21.83L21.66-21.83Q21.09-21.48 20.41-21.13 19.73-20.78 18.99-20.51L18.99-20.51Q19.36-20.97 19.3-21.34 19.24-21.7 18.85-22 18.46-22.29 17.8-22.5 17.14-22.71 16.33-22.84 15.53-22.97 14.64-23.03 13.75-23.1 12.89-23.1L12.89-23.1Q12.06-23.1 11.23-23.03 10.4-22.97 9.74-22.72 9.08-22.46 8.67-21.92 8.25-21.39 8.25-20.46L8.25-20.46Q8.25-19.7 8.59-18.88 8.94-18.07 9.61-17.35 10.28-16.63 11.28-16.06 12.28-15.5 13.6-15.26L13.6-15.26Q14.62-15.06 15.87-14.97 17.11-14.87 18.36-14.72 19.6-14.58 20.76-14.31 21.92-14.04 22.83-13.5 23.73-12.96 24.27-12.08 24.8-11.21 24.8-9.84ZM59.59-14.21L59.59-14.21Q59.59-12.18 59.03-10.52 58.47-8.86 57.69-7.62 56.91-6.37 56.1-5.54 55.3-4.71 54.81-4.35L54.81-4.35Q53.39-3.32 51.9-2.34 50.41-1.37 48.84-0.6 47.26 0.17 45.6 0.63 43.94 1.1 42.19 1.1L42.19 1.1Q39.57 1.1 37.24 0.44 34.91-0.22 33.16-1.54 31.42-2.86 30.41-4.86 29.39-6.86 29.39-9.55L29.39-9.55Q29.39-11.91 30.21-14 31.03-16.09 32.41-17.85 33.79-19.6 35.64-21.01 37.5-22.41 39.57-23.39 41.65-24.37 43.85-24.88 46.04-25.39 48.09-25.39L48.09-25.39Q50.63-25.39 52.74-24.55 54.86-23.71 56.38-22.2 57.91-20.7 58.75-18.65 59.59-16.6 59.59-14.21ZM42.75-22.56L42.75-22.56Q41.5-22.56 40.48-22.11 39.45-21.66 38.66-20.89 37.86-20.12 37.29-19.1 36.72-18.09 36.34-16.98 35.96-15.87 35.78-14.73 35.59-13.6 35.59-12.6L35.59-12.6Q35.59-10.33 36.42-8.36 37.25-6.4 38.71-4.93 40.16-3.47 42.1-2.64 44.04-1.81 46.24-1.81L46.24-1.81Q47.6-1.81 48.89-2.33 50.17-2.86 51.16-3.99 52.15-5.13 52.74-6.92 53.34-8.72 53.34-11.25L53.34-11.25Q53.34-13.48 52.51-15.53 51.68-17.58 50.24-19.14 48.8-20.7 46.87-21.63 44.94-22.56 42.75-22.56ZM102.34-4.49L102.34-4.49Q100.51-3.15 99.14-2.17 97.77-1.2 96.6-0.57 95.43 0.05 94.36 0.31 93.28 0.56 92.04 0.49L92.04 0.49Q91.08 0.44 90.41 0.09 89.74-0.27 89.3-0.94 88.86-1.61 88.63-2.6 88.4-3.59 88.33-4.96L88.33-4.96Q86.93-3.76 85.44-2.73 83.95-1.71 82.36-0.96 80.76-0.22 79.06 0.2 77.36 0.61 75.58 0.61L75.58 0.61Q73.14 0.61 71.58-0.12 70.01-0.85 69.1-2.17 68.18-3.49 67.83-5.32 67.48-7.15 67.48-9.35L67.48-9.35Q67.48-10.79 67.52-12.18 67.57-13.57 67.57-14.89L67.57-14.89Q67.57-16.43 67.46-17.77 67.35-19.12 67.02-20.1 66.69-21.09 66.07-21.67 65.45-22.24 64.42-22.24L64.42-22.24Q63.57-22.24 62.37-21.8L62.37-21.8Q63.28-22.51 64.27-23.24 65.25-23.97 66.29-24.56 67.33-25.15 68.42-25.52 69.5-25.9 70.62-25.9L70.62-25.9Q71.65-25.9 72.25-25.42 72.85-24.93 73.16-24.16 73.48-23.39 73.58-22.45 73.68-21.51 73.68-20.61L73.68-20.61Q73.68-18.19 73.63-15.99 73.58-13.79 73.58-11.6L73.58-11.6Q73.6-9.69 74.02-8.22 74.43-6.74 75.32-5.71 76.22-4.69 77.64-4.17 79.07-3.66 81.12-3.71L81.12-3.71Q82.66-3.74 83.82-3.96 84.98-4.17 85.85-4.74 86.71-5.3 87.31-6.24 87.91-7.18 88.33-8.64L88.33-8.64Q88.4-11.89 88.52-14.82 88.64-17.75 88.64-20.65L88.64-20.65Q88.62-21.24 88.35-21.66L88.35-21.66Q88.13-22 87.63-22.19 87.13-22.39 86.23-22.14L86.23-22.14Q86.93-22.68 87.81-23.34 88.69-24 89.61-24.58 90.52-25.17 91.41-25.56 92.3-25.95 93.09-25.95L93.09-25.95Q93.92-25.95 94.5-25.46 95.09-24.98 95.09-24.05L95.09-24.05Q95.09-23.54 95.08-22.23 95.06-20.92 95.03-19.19 94.99-17.46 94.97-15.5 94.94-13.55 94.92-11.76 94.89-9.96 94.89-8.5 94.89-7.03 94.89-6.3L94.89-6.3Q94.94-4.91 95.98-4.25 97.02-3.59 98.53-3.59L98.53-3.59Q99.43-3.59 100.42-3.82 101.41-4.05 102.34-4.49ZM113.74-19.75L113.74-19.75Q114.89-20.85 116.24-21.95 117.6-23.05 119-23.94 120.4-24.83 121.82-25.39 123.23-25.95 124.48-25.95L124.48-25.95Q125.33-25.95 126.15-25.77 126.97-25.59 127.76-25.35 128.56-25.12 129.34-24.94 130.12-24.76 130.93-24.76L130.93-24.76Q131.41-24.76 131.95-24.83 132.49-24.9 133.17-25.1L133.17-25.1Q131.63-23.93 130.49-23.07 129.34-22.22 128.34-21.67 127.34-21.12 126.35-20.86 125.36-20.61 124.14-20.65L124.14-20.65Q122.94-20.68 121.88-20.9 120.82-21.12 119.95-21.35 119.08-21.58 118.44-21.69 117.79-21.8 117.42-21.61L117.42-21.61Q116.55-21.17 115.89-20 115.23-18.82 114.78-17.21 114.32-15.6 114.04-13.72 113.76-11.84 113.63-9.96 113.49-8.08 113.49-6.38 113.49-4.69 113.59-3.44L113.59-3.44Q111.76-2.27 110.56-1.42 109.37-0.56 108.66 0L108.66 0Q107.83 0.66 107.39 1.15L107.39 1.15Q107.41-0.32 107.46-2.4 107.51-4.49 107.55-6.79 107.59-9.08 107.61-11.34 107.63-13.6 107.63-15.41L107.63-15.41Q107.63-16.55 107.57-17.74 107.51-18.92 107.17-19.9 106.83-20.87 106.11-21.48 105.39-22.09 104.07-22.09L104.07-22.09Q103.56-22.09 103.01-21.98 102.46-21.88 101.92-21.61L101.92-21.61Q102.95-22.29 103.97-23 105-23.71 106.03-24.28 107.07-24.85 108.11-25.21 109.15-25.56 110.22-25.56L110.22-25.56Q111.52-25.56 112.24-25 112.96-24.44 113.29-23.58 113.62-22.73 113.68-21.7 113.74-20.68 113.74-19.75ZM165.1-3.76L165.1-3.76Q164.08-2.73 162.89-1.89 161.71-1.05 160.51-0.44 159.32 0.17 158.19 0.54 157.07 0.9 156.14 0.95L156.14 0.95Q155.63 1 154.82 0.94 154.02 0.88 153.27 0.51 152.53 0.15 151.99-0.63 151.45-1.42 151.45-2.86L151.45-2.86 151.45-5.76Q150.11-4.44 148.62-3.23 147.13-2.03 145.56-1.09 143.98-0.15 142.37 0.4 140.76 0.95 139.2 0.95L139.2 0.95Q137.2 0.95 135.68 0.06 134.17-0.83 133.14-2.25 132.12-3.66 131.61-5.42 131.09-7.18 131.09-8.91L131.09-8.91Q131.09-10.21 131.29-11.46 131.48-12.72 131.79-13.84 132.09-14.97 132.5-15.87 132.9-16.77 133.34-17.36L133.34-17.36Q134.15-18.46 135.39-19.48 136.64-20.51 138.11-21.41 139.59-22.31 141.25-23.05 142.91-23.78 144.56-24.32 146.21-24.85 147.77-25.15 149.33-25.44 150.65-25.44L150.65-25.44Q152.02-25.44 153.87-25.31 155.73-25.17 158.1-24.76L158.1-24.76Q158-21.95 157.92-19.8 157.85-17.65 157.8-15.95 157.75-14.26 157.73-12.87 157.7-11.47 157.7-10.16L157.7-10.16Q157.7-8.81 157.66-7.52 157.61-6.23 157.85-5.2 158.1-4.17 158.82-3.54 159.54-2.91 161.05-2.91L161.05-2.91Q161.95-2.91 162.98-3.14 164-3.37 165.1-3.76ZM151.5-21.24L151.5-21.24Q150.04-21.63 148.38-21.79 146.72-21.95 145.2-21.95L145.2-21.95Q144.37-21.95 143.63-21.9 142.89-21.85 142.28-21.78 141.66-21.7 141.2-21.59 140.74-21.48 140.49-21.34L140.49-21.34Q140.05-21.12 139.47-20.28 138.88-19.43 138.34-18.19 137.81-16.94 137.43-15.38 137.05-13.82 137.05-12.16L137.05-12.16Q137.05-10.57 137.51-8.97 137.98-7.37 138.87-6.1 139.76-4.83 141.07-4.04 142.37-3.25 144.06-3.25L144.06-3.25Q145.64-3.25 146.87-3.76 148.09-4.27 148.99-5.16 149.89-6.05 150.49-7.25 151.09-8.45 151.45-9.84L151.45-9.84Q151.45-10.86 151.45-12.02 151.45-13.18 151.45-14.58 151.45-15.97 151.47-17.61 151.48-19.26 151.5-21.24ZM182.24-3.71L182.24-3.71 176.84 1.15Q176.28-1.15 175.55-3.55 174.82-5.96 174.11-7.96L174.11-7.96Q173.3-10.28 172.45-12.5L172.45-12.5Q171.74-14.77 170.97-16.43 170.2-18.09 169.34-19.17 168.47-20.24 167.49-20.76 166.52-21.29 165.39-21.29L165.39-21.29Q164.12-21.29 162.71-20.7L162.71-20.7Q163.46-21.31 164.54-22.2 165.61-23.1 166.78-23.91 167.96-24.73 169.14-25.32 170.32-25.9 171.3-25.9L171.3-25.9Q171.98-25.9 172.64-25.57 173.3-25.24 173.89-24.51L173.89-24.51Q174.33-23.93 174.98-22.86 175.62-21.8 176.35-20.43 177.09-19.07 177.86-17.47 178.63-15.87 179.32-14.17 180.02-12.48 180.59-10.75 181.16-9.03 181.51-7.45L181.51-7.45Q182.36-8.52 183.08-9.51 183.8-10.5 184.34-11.28L184.34-11.28Q184.97-12.18 185.46-12.99L185.46-12.99Q186.71-15.06 187.4-16.77 188.1-18.48 188.1-19.85L188.1-19.85Q188.1-20.53 187.9-21.12 187.71-21.7 187.24-22.14L187.24-22.14 193.05-26Q193.49-25.54 193.68-24.98 193.86-24.41 193.86-23.8L193.86-23.8Q193.86-22.56 193.35-21.2 192.83-19.85 191.99-18.43 191.15-17.02 190.09-15.58 189.03-14.14 187.91-12.74 186.8-11.35 185.75-10.03 184.7-8.72 183.9-7.56 183.09-6.4 182.63-5.42 182.17-4.44 182.24-3.71ZM239.09-17.46L239.09-17.31Q239.02-15.87 238.9-13.77L238.9-13.77Q238.78-11.96 238.62-9.24 238.46-6.52 238.19-2.81L238.19-2.81 231.94 1.34Q232.21-0.27 232.39-2.09 232.58-3.91 232.7-5.76 232.82-7.62 232.88-9.44 232.94-11.25 232.94-12.84L232.94-12.84Q232.94-14.36 232.81-15.84 232.67-17.33 232.15-18.51 231.62-19.68 230.59-20.41 229.55-21.14 227.74-21.14L227.74-21.14Q226.13-21.14 224.99-20.24 223.86-19.34 223.05-17.19 222.25-15.04 221.72-11.51 221.2-7.98 220.83-2.71L220.83-2.71 215 1.49Q215.22-3.22 215.34-6.54 215.46-9.86 215.51-12.01L215.51-12.01Q215.58-14.53 215.58-16.16L215.58-16.16Q215.71-19.12 214.78-20.79 213.85-22.46 211.95-22.46L211.95-22.46Q211.34-22.46 210.66-22.28 209.99-22.09 209.24-21.75L209.24-21.75Q210.19-22.44 211.24-23.16 212.29-23.88 213.39-24.46 214.48-25.05 215.6-25.43 216.71-25.81 217.78-25.81L217.78-25.81Q218.81-25.81 219.65-25.39 220.49-24.98 220.93-24L220.93-24Q221.32-23.14 221.5-22.03 221.69-20.92 221.74-19.6L221.74-19.6Q222.79-20.85 224.12-22.01 225.45-23.17 226.87-24.04 228.3-24.9 229.74-25.38 231.18-25.85 232.43-25.71L232.43-25.71Q233.31-25.59 234.27-25.27 235.24-24.95 236.1-24.34 236.97-23.73 237.68-22.79 238.39-21.85 238.75-20.46L238.75-20.46Q239.8-21.58 241.07-22.6 242.34-23.61 243.66-24.34 244.98-25.07 246.27-25.45 247.57-25.83 248.69-25.71L248.69-25.71Q249.79-25.56 250.97-25.11 252.16-24.66 253.13-23.69 254.11-22.73 254.73-21.18 255.35-19.63 255.28-17.31L255.28-17.31Q255.21-14.55 255.02-12.23 254.84-9.91 254.84-8.15L254.84-8.15Q254.84-7.1 255.02-6.18 255.21-5.25 255.65-4.57 256.09-3.88 256.82-3.49 257.55-3.1 258.65-3.1L258.65-3.1Q259.63-3.1 260.71-3.48 261.8-3.86 262.9-4.64L262.9-4.64Q261.09-3.05 259.61-1.98 258.14-0.9 256.87-0.24 255.6 0.42 254.51 0.7 253.42 0.98 252.4 0.95L252.4 0.95Q251.37 0.93 250.64 0.55 249.91 0.17 249.47-0.62 249.03-1.42 248.86-2.67 248.69-3.93 248.74-5.76L248.74-5.76Q248.81-7.37 248.92-9.31 249.03-11.25 249.03-13.16L249.03-13.16Q249.03-14.72 248.9-16.17 248.76-17.63 248.25-18.73 247.74-19.82 246.74-20.48 245.73-21.14 244-21.14L244-21.14Q243.05-21.14 242.29-20.87 241.54-20.61 240.94-20.1 240.34-19.6 239.89-18.93 239.44-18.26 239.09-17.46L239.09-17.46ZM297.93-3.76L297.93-3.76Q296.9-2.73 295.72-1.89 294.54-1.05 293.34-0.44 292.14 0.17 291.02 0.54 289.9 0.9 288.97 0.95L288.97 0.95Q288.46 1 287.65 0.94 286.85 0.88 286.1 0.51 285.36 0.15 284.82-0.63 284.28-1.42 284.28-2.86L284.28-2.86 284.28-5.76Q282.94-4.44 281.45-3.23 279.96-2.03 278.39-1.09 276.81-0.15 275.2 0.4 273.59 0.95 272.03 0.95L272.03 0.95Q270.02 0.95 268.51 0.06 267-0.83 265.97-2.25 264.95-3.66 264.43-5.42 263.92-7.18 263.92-8.91L263.92-8.91Q263.92-10.21 264.12-11.46 264.31-12.72 264.62-13.84 264.92-14.97 265.32-15.87 265.73-16.77 266.17-17.36L266.17-17.36Q266.97-18.46 268.22-19.48 269.46-20.51 270.94-21.41 272.42-22.31 274.08-23.05 275.74-23.78 277.38-24.32 279.03-24.85 280.6-25.15 282.16-25.44 283.48-25.44L283.48-25.44Q284.84-25.44 286.7-25.31 288.55-25.17 290.92-24.76L290.92-24.76Q290.82-21.95 290.75-19.8 290.68-17.65 290.63-15.95 290.58-14.26 290.56-12.87 290.53-11.47 290.53-10.16L290.53-10.16Q290.53-8.81 290.48-7.52 290.43-6.23 290.68-5.2 290.92-4.17 291.64-3.54 292.36-2.91 293.88-2.91L293.88-2.91Q294.78-2.91 295.81-3.14 296.83-3.37 297.93-3.76ZM284.33-21.24L284.33-21.24Q282.87-21.63 281.21-21.79 279.55-21.95 278.03-21.95L278.03-21.95Q277.2-21.95 276.46-21.9 275.71-21.85 275.1-21.78 274.49-21.7 274.03-21.59 273.56-21.48 273.32-21.34L273.32-21.34Q272.88-21.12 272.29-20.28 271.71-19.43 271.17-18.19 270.63-16.94 270.26-15.38 269.88-13.82 269.88-12.16L269.88-12.16Q269.88-10.57 270.34-8.97 270.81-7.37 271.7-6.1 272.59-4.83 273.89-4.04 275.2-3.25 276.88-3.25L276.88-3.25Q278.47-3.25 279.69-3.76 280.91-4.27 281.82-5.16 282.72-6.05 283.32-7.25 283.92-8.45 284.28-9.84L284.28-9.84Q284.28-10.86 284.28-12.02 284.28-13.18 284.28-14.58 284.28-15.97 284.29-17.61 284.31-19.26 284.33-21.24ZM308.67-2.71L308.67-2.71 302.83 1.49Q303.05-3.22 303.18-6.54 303.3-9.86 303.35-12.01L303.35-12.01Q303.42-14.53 303.42-16.16L303.42-16.16Q303.54-19.12 302.61-20.79 301.69-22.46 299.78-22.46L299.78-22.46Q299.17-22.46 298.5-22.28 297.83-22.09 297.07-21.75L297.07-21.75Q298.02-22.44 299.07-23.16 300.12-23.88 301.22-24.46 302.32-25.05 303.43-25.43 304.54-25.81 305.62-25.81L305.62-25.81Q306.64-25.81 307.48-25.39 308.33-24.98 308.77-24L308.77-24Q309.16-23.17 309.32-22.14 309.47-21.12 309.52-19.9L309.52-19.9Q310.77-21.22 312.32-22.36 313.87-23.51 315.55-24.32 317.24-25.12 318.95-25.51 320.66-25.9 322.17-25.71L322.17-25.71Q323.27-25.56 324.45-25.1 325.64-24.63 326.63-23.68 327.61-22.73 328.22-21.18 328.83-19.63 328.79-17.31L328.79-17.31Q328.71-14.58 328.54-12.29 328.37-10.01 328.37-8.25L328.37-8.25Q328.37-7.2 328.54-6.26 328.71-5.32 329.14-4.63 329.57-3.93 330.3-3.52 331.03-3.1 332.13-3.1L332.13-3.1Q333.11-3.1 334.19-3.48 335.28-3.86 336.38-4.64L336.38-4.64Q334.6-3.05 333.12-1.98 331.64-0.9 330.37-0.24 329.1 0.42 328 0.7 326.91 0.98 325.88 0.95L325.88 0.95Q324.86 0.93 324.12 0.55 323.39 0.17 322.95-0.62 322.51-1.42 322.34-2.67 322.17-3.93 322.22-5.76L322.22-5.76Q322.29-7.37 322.41-9.31 322.54-11.25 322.54-13.16L322.54-13.16Q322.54-15.33 322.24-16.89 321.95-18.46 321.18-19.47 320.41-20.48 319.06-20.97 317.7-21.46 315.58-21.46L315.58-21.46Q314.04-21.46 312.97-20.86 311.89-20.26 311.18-19.24 310.48-18.21 310.07-16.86 309.67-15.5 309.46-13.98 309.25-12.45 309.18-10.85 309.11-9.25 309.07-7.76 309.04-6.27 308.96-4.97 308.89-3.66 308.67-2.71ZM373.58-3.39L373.58-3.39Q370.29-1.15 367.97-0.17 365.65 0.81 364.04 0.81L364.04 0.81Q363.38 0.81 362.68 0.6 361.99 0.39 361.35-0.11 360.72-0.61 360.19-1.45 359.67-2.29 359.37-3.59L359.37-3.59Q358.18-2.71 356.73-1.86 355.27-1 353.73-0.32 352.2 0.37 350.65 0.78 349.1 1.2 347.68 1.2L347.68 1.2Q345.29 1.2 343.38 0.23 341.48-0.73 340.15-2.32 338.82-3.91 338.1-5.93 337.38-7.96 337.38-10.11L337.38-10.11Q337.38-12.5 338.12-14.39 338.87-16.28 340.15-17.76 341.43-19.24 343.11-20.37 344.8-21.51 346.7-22.36 348.61-23.22 350.61-23.86 352.61-24.51 354.49-25.05L354.49-25.05Q354.66-25.07 354.91-25.1L354.91-25.1Q355.1-25.12 355.38-25.13 355.66-25.15 356.03-25.15L356.03-25.15Q356.71-25.15 357.58-25.06 358.45-24.98 359.42-24.76L359.42-24.76 359.94-40.16Q359.89-41.5 359.45-42.46L359.45-42.46Q359.25-42.85 358.96-43.2 358.67-43.55 358.24-43.75 357.81-43.95 357.21-43.97 356.62-43.99 355.83-43.75L355.83-43.75Q356.79-44.19 357.86-44.74 358.93-45.29 360-45.76 361.06-46.24 362.07-46.57 363.09-46.9 363.94-46.9L363.94-46.9Q364.87-46.9 365.49-46.41 366.11-45.92 366.19-44.9L366.19-44.9Q366.26-44.21 366.27-43.02 366.28-41.82 366.28-40.16L366.28-40.16Q366.28-38.18 366.25-35.75 366.21-33.33 366.16-30.69 366.11-28.05 366.04-25.32 365.97-22.58 365.92-19.97 365.87-17.36 365.83-15 365.8-12.65 365.8-10.79L365.8-10.79Q365.8-9.33 365.98-7.91 366.16-6.49 366.71-5.37 367.26-4.25 368.25-3.55 369.24-2.86 370.87-2.86L370.87-2.86Q371.48-2.86 372.16-2.98 372.83-3.1 373.58-3.39ZM359.28-19.41L359.28-19.41Q358.42-20.14 357.45-20.63 356.47-21.12 355.43-21.42 354.39-21.73 353.36-21.86 352.32-22 351.34-22L351.34-22Q349.22-22 347.72-21.36 346.22-20.73 345.26-19.56 344.31-18.38 343.87-16.75 343.43-15.11 343.43-13.11L343.43-13.11Q343.43-10.96 344.1-9.05 344.77-7.13 346-5.68 347.22-4.22 348.96-3.38 350.71-2.54 352.83-2.54L352.83-2.54Q354.35-2.54 355.42-2.92 356.49-3.3 357.21-3.97 357.93-4.64 358.37-5.59 358.81-6.54 359.08-7.69L359.08-7.69Q359.08-8.64 359.09-9.92 359.11-11.21 359.14-12.71 359.18-14.21 359.2-15.91 359.23-17.6 359.28-19.41ZM409.32-3.76L409.32-3.76Q408.3-2.73 407.11-1.89 405.93-1.05 404.73-0.44 403.54 0.17 402.41 0.54 401.29 0.9 400.36 0.95L400.36 0.95Q399.85 1 399.04 0.94 398.24 0.88 397.49 0.51 396.75 0.15 396.21-0.63 395.68-1.42 395.68-2.86L395.68-2.86 395.68-5.76Q394.33-4.44 392.84-3.23 391.35-2.03 389.78-1.09 388.2-0.15 386.59 0.4 384.98 0.95 383.42 0.95L383.42 0.95Q381.42 0.95 379.9 0.06 378.39-0.83 377.37-2.25 376.34-3.66 375.83-5.42 375.31-7.18 375.31-8.91L375.31-8.91Q375.31-10.21 375.51-11.46 375.7-12.72 376.01-13.84 376.32-14.97 376.72-15.87 377.12-16.77 377.56-17.36L377.56-17.36Q378.37-18.46 379.61-19.48 380.86-20.51 382.33-21.41 383.81-22.31 385.47-23.05 387.13-23.78 388.78-24.32 390.43-24.85 391.99-25.15 393.55-25.44 394.87-25.44L394.87-25.44Q396.24-25.44 398.09-25.31 399.95-25.17 402.32-24.76L402.32-24.76Q402.22-21.95 402.15-19.8 402.07-17.65 402.02-15.95 401.97-14.26 401.95-12.87 401.93-11.47 401.93-10.16L401.93-10.16Q401.93-8.81 401.88-7.52 401.83-6.23 402.07-5.2 402.32-4.17 403.04-3.54 403.76-2.91 405.27-2.91L405.27-2.91Q406.17-2.91 407.2-3.14 408.22-3.37 409.32-3.76ZM395.72-21.24L395.72-21.24Q394.26-21.63 392.6-21.79 390.94-21.95 389.43-21.95L389.43-21.95Q388.6-21.95 387.85-21.9 387.11-21.85 386.5-21.78 385.89-21.7 385.42-21.59 384.96-21.48 384.71-21.34L384.71-21.34Q384.27-21.12 383.69-20.28 383.1-19.43 382.57-18.19 382.03-16.94 381.65-15.38 381.27-13.82 381.27-12.16L381.27-12.16Q381.27-10.57 381.74-8.97 382.2-7.37 383.09-6.1 383.98-4.83 385.29-4.04 386.59-3.25 388.28-3.25L388.28-3.25Q389.87-3.25 391.09-3.76 392.31-4.27 393.21-5.16 394.11-6.05 394.71-7.25 395.31-8.45 395.68-9.84L395.68-9.84Q395.68-10.86 395.68-12.02 395.68-13.18 395.68-14.58 395.68-15.97 395.69-17.61 395.7-19.26 395.72-21.24ZM428.93-4.49L428.93-4.49Q426.48-2.81 424.82-1.72 423.16-0.63 421.93 0.01 420.7 0.66 419.71 0.9 418.72 1.15 417.62 1.15L417.62 1.15Q416.67 1.15 415.78 0.7 414.89 0.24 414.19-0.96 413.5-2.17 413.08-4.28 412.67-6.4 412.67-9.74L412.67-9.74Q412.67-13.04 412.74-16.65 412.81-20.26 412.9-23.9 412.98-27.54 413.06-31.03 413.13-34.52 413.13-37.55L413.13-37.55Q413.13-40.53 412.23-42.19 411.32-43.85 409.47-43.85L409.47-43.85Q408.91-43.85 408.22-43.69 407.54-43.53 406.78-43.14L406.78-43.14Q407.73-43.82 408.78-44.54 409.83-45.26 410.92-45.85 412.01-46.44 413.12-46.81 414.23-47.19 415.33-47.19L415.33-47.19Q416.72-47.19 417.51-46.5 418.3-45.8 418.68-44.78 419.06-43.75 419.15-42.54 419.23-41.33 419.23-40.31L419.23-40.31Q419.21-38.75 419.17-36.55 419.14-34.35 419.09-31.82 419.04-29.3 418.99-26.59 418.94-23.88 418.89-21.28 418.84-18.68 418.81-16.33 418.77-13.99 418.72-12.21L418.72-12.21Q418.67-9.81 419.06-8.07 419.45-6.32 420.18-5.2 420.92-4.08 421.94-3.54 422.97-3 424.21-3L424.21-3Q426.46-3 428.93-4.49Z" opacity="1" transform="matrix(1,0,0,1,0,0)" fill="#ffffff" class="slogan-text-1" data-fill-palette-color="secondary" id="text-1"></path></svg></g></svg></g></svg></g></svg></g></svg></g></svg></g></svg></g></svg></g><defs></defs></svg><rect width="448" height="360" fill="none" stroke="none" visibility="hidden"></rect></g></svg></g></svg>